<mxfile host="app.diagrams.net" agent="Mozilla/5.0 (Windows NT 10.0; Win64; x64) AppleWebKit/537.36 (KHTML, like Gecko) Chrome/134.0.0.0 Safari/537.36" version="26.1.1">
  <diagram name="Page-1" id="VP9jU60o31eCcBaB49xK">
    <mxGraphModel dx="1653" dy="432" grid="1" gridSize="10" guides="1" tooltips="1" connect="1" arrows="1" fold="1" page="1" pageScale="1" pageWidth="850" pageHeight="1100" math="0" shadow="0">
      <root>
        <mxCell id="0" />
        <mxCell id="1" parent="0" />
        <mxCell id="x9Pqx8U_sZAu87wwfYyE-1" value="" style="verticalLabelPosition=bottom;html=1;verticalAlign=top;align=center;strokeColor=none;fillColor=#00BEF2;shape=mxgraph.azure.computer;pointerEvents=1;" vertex="1" parent="1">
          <mxGeometry x="-130" y="40" width="160" height="160" as="geometry" />
        </mxCell>
        <mxCell id="x9Pqx8U_sZAu87wwfYyE-2" value="" style="verticalLabelPosition=bottom;html=1;verticalAlign=top;align=center;strokeColor=none;fillColor=#00BEF2;shape=mxgraph.azure.computer;pointerEvents=1;" vertex="1" parent="1">
          <mxGeometry x="480" y="40" width="160" height="160" as="geometry" />
        </mxCell>
        <mxCell id="x9Pqx8U_sZAu87wwfYyE-4" value="" style="endArrow=classic;html=1;rounded=0;exitX=1.013;exitY=0.394;exitDx=0;exitDy=0;exitPerimeter=0;" edge="1" parent="1">
          <mxGeometry width="50" height="50" relative="1" as="geometry">
            <mxPoint x="29.999999999999943" y="100.03999999999996" as="sourcePoint" />
            <mxPoint x="467.91999999999996" y="100" as="targetPoint" />
          </mxGeometry>
        </mxCell>
        <mxCell id="x9Pqx8U_sZAu87wwfYyE-11" value="ping 10.0.2.2" style="edgeLabel;html=1;align=center;verticalAlign=middle;resizable=0;points=[];" vertex="1" connectable="0" parent="x9Pqx8U_sZAu87wwfYyE-4">
          <mxGeometry x="0.192" y="-2" relative="1" as="geometry">
            <mxPoint as="offset" />
          </mxGeometry>
        </mxCell>
        <mxCell id="x9Pqx8U_sZAu87wwfYyE-8" value="" style="endArrow=classic;html=1;rounded=0;exitX=1.013;exitY=0.394;exitDx=0;exitDy=0;exitPerimeter=0;" edge="1" parent="1">
          <mxGeometry width="50" height="50" relative="1" as="geometry">
            <mxPoint x="466.91999999999996" y="122" as="sourcePoint" />
            <mxPoint x="28.999999999999943" y="122.03999999999996" as="targetPoint" />
          </mxGeometry>
        </mxCell>
        <mxCell id="x9Pqx8U_sZAu87wwfYyE-10" value="ping 192.168.0.4" style="edgeLabel;html=1;align=center;verticalAlign=middle;resizable=0;points=[];" vertex="1" connectable="0" parent="x9Pqx8U_sZAu87wwfYyE-8">
          <mxGeometry x="-0.74" y="2" relative="1" as="geometry">
            <mxPoint as="offset" />
          </mxGeometry>
        </mxCell>
        <mxCell id="x9Pqx8U_sZAu87wwfYyE-13" value="" style="endArrow=classic;html=1;rounded=0;" edge="1" parent="1">
          <mxGeometry width="50" height="50" relative="1" as="geometry">
            <mxPoint x="-50.5" y="205" as="sourcePoint" />
            <mxPoint x="-50.5" y="295" as="targetPoint" />
          </mxGeometry>
        </mxCell>
        <mxCell id="x9Pqx8U_sZAu87wwfYyE-14" value="" style="endArrow=classic;html=1;rounded=0;" edge="1" parent="1">
          <mxGeometry width="50" height="50" relative="1" as="geometry">
            <mxPoint x="559.5" y="210" as="sourcePoint" />
            <mxPoint x="559.5" y="300" as="targetPoint" />
          </mxGeometry>
        </mxCell>
        <mxCell id="x9Pqx8U_sZAu87wwfYyE-16" value="Tools: msfvenom, metasploitable&lt;div&gt;create: payload, or malware&lt;/div&gt;" style="text;html=1;align=center;verticalAlign=middle;whiteSpace=wrap;rounded=0;" vertex="1" parent="1">
          <mxGeometry x="-140" y="300" width="200" height="30" as="geometry" />
        </mxCell>
        <mxCell id="x9Pqx8U_sZAu87wwfYyE-18" value="Remote access from kali" style="text;html=1;align=center;verticalAlign=middle;whiteSpace=wrap;rounded=0;" vertex="1" parent="1">
          <mxGeometry x="410" y="310" width="260" height="30" as="geometry" />
        </mxCell>
      </root>
    </mxGraphModel>
  </diagram>
</mxfile>
